SplineFontDB: 3.2
FontName: Tp6Captcha-Default
FullName: Tp6Captcha Default
FamilyName: Tp6Captcha
Weight: Bold
Copyright: Copyright 2019-2020 tp6-captcha. All rights reserved.
UComments: "2020-3-21: Created with FontForge (http://fontforge.org)"
Version: 1.2
ItalicAngle: 0
UnderlinePosition: 0
UnderlineWidth: 0
Ascent: 896
Descent: 128
InvalidEm: 0
sfntRevision: 0x00020000
LayerCount: 2
Layer: 0 0 "+gMxmbwAA" 1
Layer: 1 0 "+Uk1mbwAA" 0
XUID: [1021 389 -1013409464 7512]
StyleMap: 0x0000
FSType: 0
OS2Version: 0
OS2_WeightWidthSlopeOnly: 0
OS2_UseTypoMetrics: 1
CreationTime: 1584775132
ModificationTime: 1584775972
OS2TypoAscent: 0
OS2TypoAOffset: 1
OS2TypoDescent: 0
OS2TypoDOffset: 1
OS2TypoLinegap: 92
OS2WinAscent: 0
OS2WinAOffset: 1
OS2WinDescent: 0
OS2WinDOffset: 1
HheadAscent: 0
HheadAOffset: 1
HheadDescent: 0
HheadDOffset: 1
MarkAttachClasses: 1
DEI: 91125
LangName: 1033
Encoding: ISO8859-1
Compacted: 1
UnicodeInterp: none
NameList: AGL For New Fonts
DisplaySize: -48
AntiAlias: 1
FitToEm: 0
WinInfo: 0 38 14
BeginPrivate: 0
EndPrivate
BeginChars: 256 47

StartChar: two
Encoding: 50 50 0
Width: 614
VWidth: 1114
Flags: HW
LayerCount: 2
Fore
SplineSet
568 90 m 1
 54 90 l 1
 54 230 l 1
 280 418 l 2
 319 451 347 480 364 505 c 128
 381 530 389 556 389 583 c 2
 389 593 l 2
 389 623 380 646 362 661 c 128
 344 676 321 684 291 684 c 0
 257 684 231 674 212 654 c 128
 193 634 180 611 173 584 c 1
 39 635 l 1
 47 660 58 683 72 705 c 128
 86 727 106 746 128 762 c 128
 150 778 176 792 205 802 c 128
 234 812 268 817 306 817 c 0
 345 817 379 811 410 800 c 128
 441 789 467 775 488 756 c 128
 509 737 525 714 536 688 c 128
 547 662 553 633 553 602 c 0
 553 572 548 545 538 520 c 128
 528 495 514 472 497 450 c 128
 480 428 460 407 436 386 c 128
 412 365 387 345 360 324 c 2
 224 219 l 1
 568 219 l 1
 568 90 l 1
EndSplineSet
Validated: 1
EndChar

StartChar: three
Encoding: 51 51 1
Width: 614
VWidth: 1114
Flags: HW
LayerCount: 2
Fore
SplineSet
280 522 m 2
 319 522 348 529 366 544 c 128
 384 559 393 578 393 600 c 2
 393 607 l 2
 393 633 384 654 367 669 c 128
 350 684 325 692 293 692 c 0
 264 692 236 685 210 670 c 128
 184 655 163 634 145 607 c 1
 48 697 l 1
 61 715 76 731 93 746 c 128
 110 761 128 773 148 784 c 128
 168 795 189 802 214 808 c 128
 239 814 268 817 299 817 c 0
 338 817 372 813 404 804 c 128
 436 795 463 782 485 765 c 128
 507 748 524 729 536 706 c 128
 548 683 555 657 555 628 c 0
 555 605 552 584 544 566 c 128
 536 548 526 532 514 518 c 128
 502 504 487 494 470 485 c 128
 453 476 435 470 416 467 c 1
 416 461 l 1
 460 454 496 435 525 406 c 128
 554 377 568 338 568 289 c 0
 568 257 561 228 548 202 c 128
 535 176 516 154 492 135 c 128
 468 116 439 102 404 92 c 128
 369 82 331 78 289 78 c 0
 253 78 222 82 194 89 c 128
 166 96 141 106 120 119 c 128
 99 132 80 146 65 163 c 128
 50 180 36 197 25 215 c 1
 138 303 l 1
 154 274 174 250 197 231 c 128
 220 212 252 203 292 203 c 0
 329 203 357 211 377 228 c 128
 397 245 407 269 407 299 c 2
 407 306 l 2
 407 335 396 357 373 372 c 128
 350 387 319 394 279 394 c 2
 212 394 l 1
 212 522 l 1
 280 522 l 2
EndSplineSet
Validated: 1
EndChar

StartChar: four
Encoding: 52 52 2
Width: 614
VWidth: 1114
Flags: HW
LayerCount: 2
Fore
SplineSet
347 90 m 1
 347 227 l 1
 26 227 l 1
 26 358 l 1
 310 805 l 1
 495 805 l 1
 495 346 l 1
 587 346 l 1
 587 227 l 1
 495 227 l 1
 495 90 l 1
 347 90 l 1
150 346 m 1
 347 346 l 1
 347 646 l 1
 338 646 l 1
 150 346 l 1
EndSplineSet
Validated: 1
EndChar

StartChar: five
Encoding: 53 53 3
Width: 614
VWidth: 1114
Flags: HW
LayerCount: 2
Fore
SplineSet
538 671 m 1
 207 671 l 1
 190 444 l 1
 200 444 l 1
 207 461 216 476 226 490 c 128
 236 504 247 516 260 526 c 128
 273 536 287 544 304 549 c 128
 321 554 341 557 362 557 c 0
 391 557 420 552 446 542 c 128
 472 532 496 516 516 497 c 128
 536 478 552 454 564 426 c 128
 576 398 581 365 581 330 c 0
 581 294 574 261 562 230 c 128
 550 199 532 172 508 150 c 128
 484 128 456 110 421 97 c 128
 386 84 347 78 302 78 c 0
 267 78 236 82 209 89 c 128
 182 96 157 106 136 119 c 128
 115 132 97 146 82 163 c 128
 67 180 54 197 43 215 c 1
 155 303 l 1
 163 290 172 276 181 264 c 128
 190 252 200 241 212 232 c 128
 224 223 237 215 252 210 c 128
 267 205 284 203 303 203 c 0
 341 203 370 213 390 234 c 128
 410 255 419 282 419 317 c 2
 419 326 l 2
 419 359 409 385 389 404 c 128
 369 423 342 433 307 433 c 0
 278 433 255 427 236 416 c 128
 217 405 203 394 194 383 c 1
 68 400 l 1
 94 805 l 1
 538 805 l 1
 538 671 l 1
EndSplineSet
Validated: 1
EndChar

StartChar: six
Encoding: 54 54 4
Width: 614
VWidth: 1114
Flags: HW
LayerCount: 2
Fore
SplineSet
311 78 m 0
 268 78 230 85 196 98 c 128
 162 111 133 130 110 155 c 128
 87 180 70 209 58 244 c 128
 46 279 39 318 39 361 c 0
 39 411 46 458 62 503 c 128
 78 548 99 589 124 627 c 128
 149 665 177 699 208 729 c 128
 239 759 269 784 300 805 c 1
 512 805 l 1
 467 774 427 744 392 716 c 128
 357 688 326 660 300 632 c 128
 274 604 253 574 236 544 c 128
 219 514 207 481 200 446 c 1
 209 443 l 1
 215 456 223 470 232 483 c 128
 241 496 251 508 264 518 c 128
 277 528 293 536 310 542 c 128
 327 548 348 551 371 551 c 0
 401 551 429 546 455 535 c 128
 481 524 503 509 522 490 c 128
 541 471 555 447 566 420 c 128
 577 393 583 362 583 328 c 0
 583 292 577 259 564 228 c 128
 551 197 532 170 508 148 c 128
 484 126 456 108 422 96 c 128
 388 84 352 78 311 78 c 0
310 198 m 256
 347 198 375 208 394 227 c 128
 413 246 423 274 423 309 c 2
 423 323 l 2
 423 358 413 385 394 404 c 128
 375 423 347 433 310 433 c 0
 275 433 248 424 228 405 c 128
 208 386 199 359 199 323 c 2
 199 309 l 2
 199 274 208 246 227 227 c 128
 246 208 273 198 310 198 c 256
EndSplineSet
Validated: 1
EndChar

StartChar: seven
Encoding: 55 55 5
Width: 614
VWidth: 1114
Flags: HW
LayerCount: 2
Fore
SplineSet
168 90 m 1
 414 680 l 1
 182 680 l 1
 182 550 l 1
 52 550 l 1
 52 805 l 1
 566 805 l 1
 566 672 l 1
 330 90 l 1
 168 90 l 1
EndSplineSet
Validated: 1
EndChar

StartChar: eight
Encoding: 56 56 6
Width: 614
VWidth: 1114
Flags: HW
LayerCount: 2
Fore
SplineSet
307 78 m 256
 264 78 225 84 192 94 c 128
 159 104 131 118 108 137 c 128
 85 156 67 178 55 204 c 128
 43 230 37 257 37 287 c 0
 37 334 50 371 77 399 c 128
 104 427 138 447 179 459 c 1
 179 467 l 1
 144 480 115 499 92 526 c 128
 69 553 58 587 58 629 c 0
 58 656 63 681 74 704 c 128
 85 727 102 747 123 764 c 128
 144 781 170 794 201 803 c 128
 232 812 267 817 307 817 c 0
 346 817 382 812 413 803 c 128
 444 794 471 781 492 764 c 128
 513 747 529 727 540 704 c 128
 551 681 556 656 556 629 c 0
 556 588 545 553 522 526 c 128
 499 499 470 480 435 467 c 1
 435 459 l 1
 476 448 511 428 538 399 c 128
 565 370 578 333 578 287 c 0
 578 257 572 230 560 204 c 128
 548 178 530 156 507 137 c 128
 484 118 455 104 422 94 c 128
 389 84 350 78 307 78 c 256
307 195 m 256
 342 195 369 203 388 220 c 128
 407 237 417 259 417 287 c 2
 417 307 l 2
 417 336 408 358 389 374 c 128
 370 390 343 398 307 398 c 256
 271 398 244 390 226 374 c 128
 208 358 198 336 198 307 c 2
 198 287 l 2
 198 259 207 237 226 220 c 128
 245 203 272 195 307 195 c 256
307 511 m 256
 341 511 367 518 385 534 c 128
 403 550 412 571 412 598 c 2
 412 613 l 2
 412 640 402 661 384 676 c 128
 366 691 340 699 307 699 c 256
 274 699 248 691 230 676 c 128
 212 661 203 640 203 613 c 2
 203 598 l 2
 203 571 212 550 230 534 c 128
 248 518 273 511 307 511 c 256
EndSplineSet
Validated: 1
EndChar

StartChar: A
Encoding: 65 65 7
Width: 614
VWidth: 1114
Flags: HW
LayerCount: 2
Fore
SplineSet
445 90 m 1
 400 262 l 1
 205 262 l 1
 161 90 l 1
 5 90 l 1
 199 805 l 1
 416 805 l 1
 609 90 l 1
 445 90 l 1
307 656 m 1
 299 656 l 1
 229 386 l 1
 377 386 l 1
 307 656 l 1
EndSplineSet
Validated: 1
EndChar

StartChar: B
Encoding: 66 66 8
Width: 614
VWidth: 1114
Flags: HW
LayerCount: 2
Fore
SplineSet
79 805 m 1
 330 805 l 2
 400 805 454 788 491 754 c 128
 528 720 547 673 547 614 c 0
 547 573 536 540 516 516 c 128
 496 492 467 475 430 464 c 1
 430 458 l 1
 475 447 509 428 533 400 c 128
 557 372 569 335 569 287 c 0
 569 227 550 180 512 144 c 128
 474 108 422 90 353 90 c 2
 79 90 l 1
 79 805 l 1
306 198 m 2
 343 198 370 204 387 216 c 128
 404 228 413 251 413 284 c 2
 413 313 l 2
 413 346 404 368 387 380 c 128
 370 392 343 399 306 399 c 2
 228 399 l 1
 228 198 l 1
 306 198 l 2
287 502 m 2
 323 502 350 508 366 520 c 128
 382 532 390 553 390 585 c 2
 390 615 l 2
 390 646 382 668 366 680 c 128
 350 692 323 697 287 697 c 2
 228 697 l 1
 228 502 l 1
 287 502 l 2
EndSplineSet
Validated: 1
EndChar

StartChar: C
Encoding: 67 67 9
Width: 614
VWidth: 1114
Flags: HW
LayerCount: 2
Fore
SplineSet
324 78 m 0
 229 78 158 110 112 174 c 128
 66 238 42 330 42 447 c 256
 42 564 65 655 111 720 c 128
 157 785 228 817 324 817 c 0
 361 817 394 812 422 802 c 128
 450 792 474 778 494 760 c 128
 514 742 532 721 545 696 c 128
 558 671 569 642 577 611 c 1
 433 576 l 1
 429 593 424 610 419 624 c 128
 414 638 407 650 398 660 c 128
 389 670 379 678 366 684 c 128
 353 690 338 693 321 693 c 0
 280 693 250 676 232 644 c 128
 214 612 206 567 206 510 c 2
 206 385 l 2
 206 328 215 282 232 250 c 128
 249 218 279 202 321 202 c 0
 356 202 382 212 398 234 c 128
 414 256 426 284 433 318 c 1
 577 284 l 1
 570 253 560 224 546 199 c 128
 532 174 514 152 494 134 c 128
 474 116 450 101 422 92 c 128
 394 83 361 78 324 78 c 0
EndSplineSet
Validated: 1
EndChar

StartChar: D
Encoding: 68 68 10
Width: 614
VWidth: 1114
Flags: HW
LayerCount: 2
Fore
SplineSet
66 805 m 1
 296 805 l 2
 392 805 463 774 510 712 c 128
 557 650 580 562 580 447 c 256
 580 332 557 243 510 182 c 128
 463 121 392 90 296 90 c 2
 66 90 l 1
 66 805 l 1
286 211 m 2
 332 211 365 226 386 255 c 128
 407 284 418 327 418 383 c 2
 418 513 l 2
 418 568 407 611 386 640 c 128
 365 669 331 684 286 684 c 2
 217 684 l 1
 217 211 l 1
 286 211 l 2
EndSplineSet
Validated: 1
EndChar

StartChar: E
Encoding: 69 69 11
Width: 614
VWidth: 1114
Flags: HW
LayerCount: 2
Fore
SplineSet
82 90 m 1
 82 805 l 1
 539 805 l 1
 539 679 l 1
 236 679 l 1
 236 515 l 1
 528 515 l 1
 528 389 l 1
 236 389 l 1
 236 216 l 1
 539 216 l 1
 539 90 l 1
 82 90 l 1
EndSplineSet
Validated: 1
EndChar

StartChar: F
Encoding: 70 70 12
Width: 614
VWidth: 1114
Flags: HW
LayerCount: 2
Fore
SplineSet
82 90 m 1
 82 805 l 1
 556 805 l 1
 556 679 l 1
 236 679 l 1
 236 515 l 1
 522 515 l 1
 522 389 l 1
 236 389 l 1
 236 90 l 1
 82 90 l 1
EndSplineSet
Validated: 1
EndChar

StartChar: H
Encoding: 72 72 13
Width: 614
VWidth: 1114
Flags: HW
LayerCount: 2
Fore
SplineSet
397 389 m 1
 217 389 l 1
 217 90 l 1
 62 90 l 1
 62 805 l 1
 217 805 l 1
 217 515 l 1
 397 515 l 1
 397 805 l 1
 552 805 l 1
 552 90 l 1
 397 90 l 1
 397 389 l 1
EndSplineSet
Validated: 1
EndChar

StartChar: J
Encoding: 74 74 14
Width: 614
VWidth: 1114
Flags: HW
LayerCount: 2
Fore
SplineSet
523 805 m 1
 523 290 l 2
 523 258 517 228 506 202 c 128
 495 176 479 154 458 135 c 128
 437 116 412 102 383 92 c 128
 354 82 321 78 285 78 c 0
 212 78 155 96 115 132 c 128
 75 168 50 217 39 276 c 1
 184 306 l 1
 189 275 200 251 216 232 c 128
 232 213 254 203 285 203 c 0
 311 203 331 211 346 228 c 128
 361 245 368 270 368 305 c 2
 368 679 l 1
 132 679 l 1
 132 805 l 1
 523 805 l 1
EndSplineSet
Validated: 1
EndChar

StartChar: K
Encoding: 75 75 15
Width: 614
VWidth: 1114
Flags: HW
LayerCount: 2
Fore
SplineSet
287 388 m 1
 223 299 l 1
 223 90 l 1
 70 90 l 1
 70 805 l 1
 223 805 l 1
 223 506 l 1
 231 506 l 1
 309 625 l 1
 435 805 l 1
 607 805 l 1
 393 503 l 1
 617 90 l 1
 444 90 l 1
 287 388 l 1
EndSplineSet
Validated: 1
EndChar

StartChar: M
Encoding: 77 77 16
Width: 614
VWidth: 1114
Flags: HW
LayerCount: 2
Fore
SplineSet
441 408 m 1
 450 608 l 1
 440 608 l 1
 307 241 l 1
 174 608 l 1
 165 608 l 1
 173 408 l 1
 173 90 l 1
 40 90 l 1
 40 805 l 1
 221 805 l 1
 309 564 l 1
 317 564 l 1
 406 805 l 1
 574 805 l 1
 574 90 l 1
 441 90 l 1
 441 408 l 1
EndSplineSet
Validated: 1
EndChar

StartChar: N
Encoding: 78 78 17
Width: 614
VWidth: 1114
Flags: HW
LayerCount: 2
Fore
SplineSet
205 565 m 1
 194 565 l 1
 194 90 l 1
 62 90 l 1
 62 805 l 1
 247 805 l 1
 410 330 l 1
 421 330 l 1
 421 805 l 1
 552 805 l 1
 552 90 l 1
 368 90 l 1
 205 565 l 1
EndSplineSet
Validated: 1
EndChar

StartChar: P
Encoding: 80 80 18
Width: 614
VWidth: 1114
Flags: HW
LayerCount: 2
Fore
SplineSet
78 90 m 1
 78 805 l 1
 354 805 l 2
 389 805 420 800 447 789 c 128
 474 778 497 764 516 744 c 128
 535 724 550 700 559 672 c 128
 568 644 573 612 573 577 c 256
 573 542 568 511 559 483 c 128
 550 455 535 432 516 412 c 128
 497 392 475 377 448 366 c 128
 421 355 389 350 354 350 c 2
 232 350 l 1
 232 90 l 1
 78 90 l 1
232 474 m 1
 315 474 l 2
 351 474 376 480 390 494 c 128
 404 508 412 531 412 562 c 2
 412 593 l 2
 412 624 405 646 391 660 c 128
 377 674 352 681 315 681 c 2
 232 681 l 1
 232 474 l 1
EndSplineSet
Validated: 1
EndChar

StartChar: Q
Encoding: 81 81 19
Width: 614
VWidth: 1114
Flags: HW
LayerCount: 2
Fore
SplineSet
539 -106 m 1
 393 -106 l 2
 338 -106 299 -93 276 -66 c 128
 253 -39 241 -3 241 42 c 2
 241 84 l 1
 168 99 114 138 80 200 c 128
 46 262 28 344 28 447 c 0
 28 564 51 655 96 720 c 128
 141 785 212 817 307 817 c 256
 402 817 472 785 518 720 c 128
 564 655 587 564 587 447 c 0
 587 344 570 260 535 198 c 128
 500 136 447 98 374 84 c 1
 374 4 l 1
 539 4 l 1
 539 -106 l 1
307 202 m 256
 351 202 381 218 398 250 c 128
 415 282 423 328 423 386 c 2
 423 510 l 2
 423 567 415 612 398 644 c 128
 381 676 351 693 307 693 c 256
 263 693 233 676 216 644 c 128
 199 612 191 567 191 510 c 2
 191 385 l 2
 191 328 199 282 216 250 c 128
 233 218 263 202 307 202 c 256
EndSplineSet
Validated: 1
EndChar

StartChar: R
Encoding: 82 82 20
Width: 614
VWidth: 1114
Flags: HW
LayerCount: 2
Fore
SplineSet
229 90 m 1
 78 90 l 1
 78 805 l 1
 354 805 l 2
 389 805 420 800 447 789 c 128
 474 778 497 764 516 744 c 128
 535 724 550 700 559 672 c 128
 568 644 573 612 573 577 c 0
 573 526 562 483 540 447 c 128
 518 411 488 387 447 376 c 1
 588 90 l 1
 420 90 l 1
 300 355 l 1
 229 355 l 1
 229 90 l 1
317 474 m 2
 353 474 378 480 392 494 c 128
 406 508 414 531 414 562 c 2
 414 593 l 2
 414 624 407 646 393 660 c 128
 379 674 354 681 317 681 c 2
 229 681 l 1
 229 474 l 1
 317 474 l 2
EndSplineSet
Validated: 1
EndChar

StartChar: T
Encoding: 84 84 21
Width: 614
VWidth: 1114
Flags: HW
LayerCount: 2
Fore
SplineSet
384 679 m 1
 384 90 l 1
 230 90 l 1
 230 679 l 1
 25 679 l 1
 25 805 l 1
 590 805 l 1
 590 679 l 1
 384 679 l 1
EndSplineSet
Validated: 1
EndChar

StartChar: U
Encoding: 85 85 22
Width: 614
VWidth: 1114
Flags: HW
LayerCount: 2
Fore
SplineSet
210 805 m 1
 210 352 l 2
 210 329 210 309 212 290 c 128
 214 271 218 255 224 242 c 128
 230 229 241 219 254 212 c 128
 267 205 284 202 307 202 c 256
 330 202 347 205 360 212 c 128
 373 219 384 229 390 242 c 128
 396 255 400 271 402 290 c 128
 404 309 404 329 404 352 c 2
 404 805 l 1
 558 805 l 1
 558 373 l 2
 558 324 554 281 548 244 c 128
 542 207 530 176 511 152 c 128
 492 128 467 108 434 96 c 128
 401 84 359 78 307 78 c 256
 255 78 213 84 180 96 c 128
 147 108 122 128 104 152 c 128
 86 176 73 207 66 244 c 128
 59 281 56 324 56 373 c 2
 56 805 l 1
 210 805 l 1
EndSplineSet
Validated: 1
EndChar

StartChar: V
Encoding: 86 86 23
Width: 614
VWidth: 1114
Flags: HW
LayerCount: 2
Fore
SplineSet
199 90 m 1
 9 805 l 1
 180 805 l 1
 264 441 l 1
 306 235 l 1
 314 235 l 1
 357 441 l 1
 442 805 l 1
 605 805 l 1
 416 90 l 1
 199 90 l 1
EndSplineSet
Validated: 1
EndChar

StartChar: W
Encoding: 87 87 24
Width: 614
VWidth: 1114
Flags: HW
LayerCount: 2
Fore
SplineSet
55 90 m 1
 11 805 l 1
 143 805 l 1
 164 377 l 1
 170 242 l 1
 179 242 l 1
 241 649 l 1
 379 649 l 1
 440 242 l 1
 450 242 l 1
 456 373 l 1
 476 805 l 1
 603 805 l 1
 559 90 l 1
 365 90 l 1
 312 484 l 1
 302 484 l 1
 250 90 l 1
 55 90 l 1
EndSplineSet
Validated: 1
EndChar

StartChar: X
Encoding: 88 88 25
Width: 614
VWidth: 1114
Flags: HW
LayerCount: 2
Fore
SplineSet
605 90 m 1
 430 90 l 1
 356 232 l 1
 306 345 l 1
 297 345 l 1
 246 232 l 1
 170 90 l 1
 9 90 l 1
 210 460 l 1
 23 805 l 1
 198 805 l 1
 256 691 l 1
 308 576 l 1
 316 576 l 1
 370 691 l 1
 431 805 l 1
 592 805 l 1
 404 458 l 1
 605 90 l 1
EndSplineSet
Validated: 1
EndChar

StartChar: Y
Encoding: 89 89 26
Width: 614
VWidth: 1114
Flags: HW
LayerCount: 2
Fore
SplineSet
230 90 m 1
 230 343 l 1
 4 805 l 1
 175 805 l 1
 251 639 l 1
 306 499 l 1
 314 499 l 1
 370 639 l 1
 445 805 l 1
 610 805 l 1
 384 343 l 1
 384 90 l 1
 230 90 l 1
EndSplineSet
Validated: 1
EndChar

StartChar: a
Encoding: 97 97 27
Width: 614
VWidth: 1114
Flags: HW
LayerCount: 2
Fore
SplineSet
499 90 m 2
 468 90 442 98 423 114 c 128
 404 130 392 153 389 183 c 1
 384 183 l 1
 375 148 356 122 328 104 c 128
 300 86 264 78 223 78 c 0
 172 78 131 92 100 120 c 128
 69 148 53 186 53 235 c 0
 53 290 74 331 114 358 c 128
 154 385 213 398 291 398 c 2
 376 398 l 1
 376 425 l 2
 376 456 369 480 354 496 c 128
 339 512 315 520 280 520 c 0
 248 520 222 514 202 502 c 128
 182 490 165 473 151 454 c 1
 68 527 l 1
 86 557 114 582 152 602 c 128
 190 622 238 631 297 631 c 0
 370 631 426 614 466 581 c 128
 506 548 527 498 527 431 c 2
 527 200 l 1
 586 200 l 1
 586 90 l 1
 499 90 l 2
281 177 m 0
 308 177 330 183 348 196 c 128
 366 209 376 228 376 253 c 2
 376 316 l 1
 295 316 l 2
 233 316 202 295 202 254 c 2
 202 233 l 2
 202 214 210 200 224 191 c 128
 238 182 257 177 281 177 c 0
EndSplineSet
Validated: 1
EndChar

StartChar: b
Encoding: 98 98 28
Width: 614
VWidth: 1114
Flags: HW
LayerCount: 2
Fore
SplineSet
60 848 m 1
 212 848 l 1
 212 522 l 1
 219 522 l 1
 232 553 250 579 275 600 c 128
 300 621 333 631 376 631 c 0
 405 631 432 625 456 614 c 128
 480 603 502 587 519 564 c 128
 536 541 550 513 560 478 c 128
 570 443 574 402 574 354 c 256
 574 306 570 265 560 230 c 128
 550 195 536 167 519 144 c 128
 502 121 480 105 456 94 c 128
 432 83 405 78 376 78 c 0
 334 78 301 88 276 108 c 128
 251 128 232 154 219 186 c 1
 212 186 l 1
 212 90 l 1
 60 90 l 1
 60 848 l 1
310 195 m 0
 344 195 370 205 389 226 c 128
 408 247 417 276 417 313 c 2
 417 395 l 2
 417 432 408 461 389 482 c 128
 370 503 344 513 310 513 c 0
 283 513 260 507 241 494 c 128
 222 481 212 460 212 432 c 2
 212 276 l 2
 212 248 222 227 241 214 c 128
 260 201 283 195 310 195 c 0
EndSplineSet
Validated: 1
EndChar

StartChar: c
Encoding: 99 99 29
Width: 614
VWidth: 1114
Flags: HW
LayerCount: 2
Fore
SplineSet
329 78 m 0
 288 78 250 84 217 97 c 128
 184 110 155 128 132 152 c 128
 109 176 92 204 80 238 c 128
 68 272 61 311 61 354 c 256
 61 397 68 436 80 470 c 128
 92 504 109 533 132 557 c 128
 155 581 183 599 216 612 c 128
 249 625 287 631 328 631 c 0
 386 631 433 620 468 596 c 128
 503 572 529 541 548 502 c 1
 431 438 l 1
 422 459 409 476 394 490 c 128
 379 504 357 510 328 510 c 0
 293 510 267 500 248 480 c 128
 229 460 219 432 219 397 c 2
 219 311 l 2
 219 276 228 249 247 229 c 128
 266 209 293 199 330 199 c 0
 359 199 382 206 399 220 c 128
 416 234 430 251 441 272 c 1
 556 207 l 1
 537 168 508 138 472 114 c 128
 436 90 388 78 329 78 c 0
EndSplineSet
Validated: 1
EndChar

StartChar: d
Encoding: 100 100 30
Width: 614
VWidth: 1114
Flags: HW
LayerCount: 2
Fore
SplineSet
402 186 m 1
 395 186 l 1
 382 154 362 128 338 108 c 128
 314 88 281 78 239 78 c 0
 210 78 182 83 158 94 c 128
 134 105 113 121 96 144 c 128
 79 167 65 195 55 230 c 128
 45 265 40 307 40 354 c 256
 40 402 45 443 55 478 c 128
 65 513 79 541 96 564 c 128
 113 587 134 603 158 614 c 128
 182 625 210 631 239 631 c 0
 260 631 279 628 295 622 c 128
 311 616 325 609 338 600 c 128
 351 591 362 579 371 566 c 128
 380 553 388 538 395 522 c 1
 402 522 l 1
 402 848 l 1
 554 848 l 1
 554 90 l 1
 402 90 l 1
 402 186 l 1
304 195 m 0
 331 195 354 201 373 214 c 128
 392 227 402 248 402 276 c 2
 402 432 l 2
 402 460 392 481 373 494 c 128
 354 507 331 513 304 513 c 0
 270 513 244 503 226 482 c 128
 208 461 198 432 198 395 c 2
 198 313 l 2
 198 276 208 247 226 226 c 128
 244 205 270 195 304 195 c 0
EndSplineSet
Validated: 1
EndChar

StartChar: e
Encoding: 101 101 31
Width: 614
VWidth: 1114
Flags: HW
LayerCount: 2
Fore
SplineSet
322 78 m 0
 233 78 166 103 120 152 c 128
 74 201 51 267 51 352 c 0
 51 395 57 434 69 468 c 128
 81 502 98 532 120 556 c 128
 142 580 170 599 202 612 c 128
 234 625 269 631 308 631 c 256
 347 631 382 625 414 612 c 128
 446 599 472 581 494 558 c 128
 516 535 533 507 545 474 c 128
 557 441 563 403 563 362 c 2
 563 317 l 1
 202 317 l 1
 202 308 l 2
 202 274 213 247 234 226 c 128
 255 205 286 194 327 194 c 0
 358 194 386 200 408 212 c 128
 430 224 449 240 466 260 c 1
 548 171 l 1
 527 146 499 124 462 106 c 128
 425 88 379 78 322 78 c 0
309 522 m 256
 276 522 250 512 231 492 c 128
 212 472 202 445 202 411 c 2
 202 402 l 1
 415 402 l 1
 415 411 l 2
 415 446 405 472 386 492 c 128
 367 512 342 522 309 522 c 256
EndSplineSet
Validated: 1
EndChar

StartChar: f
Encoding: 102 102 32
Width: 614
VWidth: 1114
Flags: HW
LayerCount: 2
Fore
SplineSet
73 208 m 1
 228 208 l 1
 228 501 l 1
 62 501 l 1
 62 618 l 1
 228 618 l 1
 228 695 l 2
 228 740 242 778 268 806 c 128
 294 834 335 848 390 848 c 2
 569 848 l 1
 569 730 l 1
 380 730 l 1
 380 618 l 1
 569 618 l 1
 569 501 l 1
 380 501 l 1
 380 208 l 1
 546 208 l 1
 546 90 l 1
 73 90 l 1
 73 208 l 1
EndSplineSet
Validated: 1
EndChar

StartChar: h
Encoding: 104 104 33
Width: 614
VWidth: 1114
Flags: HW
LayerCount: 2
Fore
SplineSet
67 848 m 1
 218 848 l 1
 218 522 l 1
 224 522 l 1
 230 537 237 551 246 564 c 128
 255 577 266 588 279 598 c 128
 292 608 306 616 323 622 c 128
 340 628 359 631 380 631 c 0
 405 631 429 627 450 618 c 128
 471 609 489 597 504 580 c 128
 519 563 530 542 539 517 c 128
 548 492 552 464 552 432 c 2
 552 90 l 1
 400 90 l 1
 400 412 l 2
 400 480 370 514 311 514 c 0
 300 514 288 513 277 510 c 128
 266 507 255 502 246 495 c 128
 237 488 231 480 226 471 c 128
 221 462 218 450 218 437 c 2
 218 90 l 1
 67 90 l 1
 67 848 l 1
EndSplineSet
Validated: 1
EndChar

StartChar: j
Encoding: 106 106 34
Width: 614
VWidth: 1114
Flags: HW
LayerCount: 2
Fore
SplineSet
340 686 m 256
 306 686 282 693 269 707 c 128
 256 721 249 738 249 758 c 2
 249 787 l 2
 249 808 256 824 269 838 c 128
 282 852 306 859 340 859 c 256
 374 859 398 852 411 838 c 128
 424 824 431 808 431 787 c 2
 431 758 l 2
 431 738 424 721 411 707 c 128
 398 693 374 686 340 686 c 256
96 208 m 1
 264 208 l 1
 264 501 l 1
 96 501 l 1
 96 618 l 1
 416 618 l 1
 416 208 l 1
 571 208 l 1
 571 90 l 1
 96 90 l 1
 96 208 l 1
EndSplineSet
Validated: 1
EndChar

StartChar: k
Encoding: 107 107 35
Width: 614
VWidth: 1114
Flags: HW
LayerCount: 2
Fore
SplineSet
94 3 m 1
 297 3 l 1
 297 501 l 1
 92 501 l 1
 92 618 l 1
 449 618 l 1
 449 38 l 2
 449 -7 436 -43 409 -72 c 128
 382 -101 342 -115 288 -115 c 2
 94 -115 l 1
 94 3 l 1
373 686 m 0
 339 686 315 693 302 707 c 128
 289 721 282 738 282 758 c 2
 282 787 l 2
 282 808 289 824 302 838 c 128
 315 852 339 859 373 859 c 0
 406 859 430 852 444 838 c 128
 458 824 464 808 464 787 c 2
 464 758 l 2
 464 738 458 721 444 707 c 128
 430 693 406 686 373 686 c 0
EndSplineSet
Validated: 1
EndChar

StartChar: m
Encoding: 109 109 36
Width: 614
VWidth: 1114
Flags: HW
LayerCount: 2
Fore
SplineSet
31 90 m 1
 31 618 l 1
 153 618 l 1
 153 541 l 1
 160 541 l 1
 168 566 180 586 195 604 c 128
 210 622 232 631 260 631 c 0
 311 631 343 601 354 541 c 1
 360 541 l 1
 364 553 370 565 376 576 c 128
 382 587 389 596 398 604 c 128
 407 612 418 619 430 624 c 128
 442 629 457 631 473 631 c 0
 547 631 584 577 584 468 c 2
 584 90 l 1
 462 90 l 1
 462 452 l 2
 462 477 458 494 449 504 c 128
 440 514 429 519 416 519 c 0
 403 519 392 515 383 506 c 128
 374 497 369 484 369 467 c 2
 369 90 l 1
 246 90 l 1
 246 452 l 2
 246 477 242 494 234 504 c 128
 226 514 215 519 202 519 c 256
 189 519 178 515 168 506 c 128
 158 497 153 484 153 467 c 2
 153 90 l 1
 31 90 l 1
EndSplineSet
Validated: 1
EndChar

StartChar: n
Encoding: 110 110 37
Width: 614
VWidth: 1114
Flags: HW
LayerCount: 2
Fore
SplineSet
67 90 m 1
 67 618 l 1
 218 618 l 1
 218 522 l 1
 224 522 l 1
 230 537 237 551 246 564 c 128
 255 577 266 588 279 598 c 128
 292 608 306 616 323 622 c 128
 340 628 359 631 380 631 c 0
 405 631 429 627 450 618 c 128
 471 609 489 597 504 580 c 128
 519 563 530 542 539 517 c 128
 548 492 552 464 552 432 c 2
 552 90 l 1
 400 90 l 1
 400 412 l 2
 400 480 370 514 311 514 c 0
 300 514 288 513 277 510 c 128
 266 507 255 502 246 495 c 128
 237 488 231 480 226 471 c 128
 221 462 218 450 218 437 c 2
 218 90 l 1
 67 90 l 1
EndSplineSet
Validated: 1
EndChar

StartChar: p
Encoding: 112 112 38
Width: 614
VWidth: 1114
Flags: HW
LayerCount: 2
Fore
SplineSet
60 618 m 1
 212 618 l 1
 212 522 l 1
 219 522 l 1
 232 553 250 579 275 600 c 128
 300 621 333 631 376 631 c 0
 405 631 432 625 456 614 c 128
 480 603 502 587 519 564 c 128
 536 541 550 513 560 478 c 128
 570 443 574 402 574 354 c 256
 574 306 570 265 560 230 c 128
 550 195 536 167 519 144 c 128
 502 121 480 105 456 94 c 128
 432 83 405 78 376 78 c 0
 334 78 301 88 276 108 c 128
 251 128 232 154 219 186 c 1
 212 186 l 1
 212 -115 l 1
 60 -115 l 1
 60 618 l 1
310 195 m 0
 344 195 370 205 389 226 c 128
 408 247 417 276 417 313 c 2
 417 395 l 2
 417 432 408 461 389 482 c 128
 370 503 344 513 310 513 c 0
 283 513 260 507 241 494 c 128
 222 481 212 460 212 432 c 2
 212 276 l 2
 212 248 222 227 241 214 c 128
 260 201 283 195 310 195 c 0
EndSplineSet
Validated: 1
EndChar

StartChar: q
Encoding: 113 113 39
Width: 614
VWidth: 1114
Flags: HW
LayerCount: 2
Fore
SplineSet
402 186 m 1
 395 186 l 1
 382 154 362 128 338 108 c 128
 314 88 281 78 239 78 c 0
 210 78 182 83 158 94 c 128
 134 105 113 121 96 144 c 128
 79 167 65 195 55 230 c 128
 45 265 40 307 40 354 c 256
 40 402 45 443 55 478 c 128
 65 513 79 541 96 564 c 128
 113 587 134 603 158 614 c 128
 182 625 210 631 239 631 c 0
 260 631 279 628 295 622 c 128
 311 616 325 609 338 600 c 128
 351 591 362 579 371 566 c 128
 380 553 388 538 395 522 c 1
 402 522 l 1
 402 618 l 1
 554 618 l 1
 554 -115 l 1
 402 -115 l 1
 402 186 l 1
304 195 m 0
 331 195 354 201 373 214 c 128
 392 227 402 248 402 276 c 2
 402 432 l 2
 402 460 392 481 373 494 c 128
 354 507 331 513 304 513 c 0
 270 513 244 503 226 482 c 128
 208 461 198 432 198 395 c 2
 198 313 l 2
 198 276 208 247 226 226 c 128
 244 205 270 195 304 195 c 0
EndSplineSet
Validated: 1
EndChar

StartChar: r
Encoding: 114 114 40
Width: 614
VWidth: 1114
Flags: HW
LayerCount: 2
Fore
SplineSet
76 208 m 1
 198 208 l 1
 198 501 l 1
 76 501 l 1
 76 618 l 1
 349 618 l 1
 349 469 l 1
 356 469 l 1
 361 488 367 507 376 525 c 128
 385 543 396 559 409 573 c 128
 422 587 439 598 458 606 c 128
 477 614 499 618 525 618 c 2
 575 618 l 1
 575 479 l 1
 463 479 l 2
 426 479 397 468 378 446 c 128
 359 424 349 397 349 364 c 2
 349 208 l 1
 523 208 l 1
 523 90 l 1
 76 90 l 1
 76 208 l 1
EndSplineSet
Validated: 1
EndChar

StartChar: t
Encoding: 116 116 41
Width: 614
VWidth: 1114
Flags: HW
LayerCount: 2
Fore
SplineSet
348 90 m 2
 293 90 253 104 226 133 c 128
 199 162 186 198 186 243 c 2
 186 501 l 1
 43 501 l 1
 43 618 l 1
 136 618 l 2
 159 618 174 623 184 632 c 128
 194 641 199 657 199 681 c 2
 199 805 l 1
 338 805 l 1
 338 618 l 1
 544 618 l 1
 544 501 l 1
 338 501 l 1
 338 208 l 1
 544 208 l 1
 544 90 l 1
 348 90 l 2
EndSplineSet
Validated: 1
EndChar

StartChar: u
Encoding: 117 117 42
Width: 614
VWidth: 1114
Flags: HW
LayerCount: 2
Fore
SplineSet
396 186 m 1
 390 186 l 1
 379 156 361 131 336 110 c 128
 311 89 277 78 234 78 c 0
 209 78 185 82 164 90 c 128
 143 98 125 112 110 129 c 128
 95 146 84 168 75 192 c 128
 66 216 62 244 62 276 c 2
 62 618 l 1
 214 618 l 1
 214 297 l 2
 214 229 244 195 303 194 c 0
 314 194 326 196 337 199 c 128
 348 202 358 208 367 214 c 128
 376 220 383 228 388 238 c 128
 393 248 396 258 396 271 c 2
 396 618 l 1
 548 618 l 1
 548 90 l 1
 396 90 l 1
 396 186 l 1
EndSplineSet
Validated: 1
EndChar

StartChar: v
Encoding: 118 118 43
Width: 614
VWidth: 1114
Flags: HW
LayerCount: 2
Fore
SplineSet
217 90 m 1
 28 618 l 1
 187 618 l 1
 256 392 l 1
 306 216 l 1
 314 216 l 1
 365 392 l 1
 433 618 l 1
 587 618 l 1
 397 90 l 1
 217 90 l 1
EndSplineSet
Validated: 1
EndChar

StartChar: w
Encoding: 119 119 44
Width: 614
VWidth: 1114
Flags: HW
LayerCount: 2
Fore
SplineSet
7 618 m 1
 133 618 l 1
 171 190 l 1
 181 190 l 1
 244 618 l 1
 377 618 l 1
 438 190 l 1
 449 190 l 1
 487 618 l 1
 607 618 l 1
 545 90 l 1
 365 90 l 1
 312 455 l 1
 302 455 l 1
 250 90 l 1
 70 90 l 1
 7 618 l 1
EndSplineSet
Validated: 1
EndChar

StartChar: x
Encoding: 120 120 45
Width: 614
VWidth: 1114
Flags: HW
LayerCount: 2
Fore
SplineSet
24 90 m 1
 221 358 l 1
 37 618 l 1
 210 618 l 1
 266 533 l 1
 309 465 l 1
 317 465 l 1
 361 533 l 1
 419 618 l 1
 578 618 l 1
 393 366 l 1
 591 90 l 1
 417 90 l 1
 350 189 l 1
 304 260 l 1
 296 260 l 1
 251 189 l 1
 183 90 l 1
 24 90 l 1
EndSplineSet
Validated: 1
EndChar

StartChar: y
Encoding: 121 121 46
Width: 614
VWidth: 1114
Flags: HW
LayerCount: 2
Fore
SplineSet
440 618 m 1
 595 618 l 1
 346 5 l 2
 330 -34 310 -63 284 -84 c 128
 258 -105 222 -115 177 -115 c 2
 73 -115 l 1
 73 3 l 1
 200 3 l 1
 232 93 l 1
 19 618 l 1
 182 618 l 1
 259 396 l 1
 307 243 l 1
 315 243 l 1
 361 396 l 1
 440 618 l 1
EndSplineSet
Validated: 1
EndChar
